M48
; DRILL file {KiCad 6.0.6-3a73a75311~116~ubuntu20.04.1} date Do 28 Jul 2022 18:38:35 CEST
; FORMAT={-:-/ absolute / metric / decimal}
; #@! TF.CreationDate,2022-07-28T18:38:35+02:00
; #@! TF.GenerationSoftware,Kicad,Pcbnew,6.0.6-3a73a75311~116~ubuntu20.04.1
; #@! TF.FileFunction,Plated,1,4,PTH
FMAT,2
METRIC
; #@! TA.AperFunction,Plated,PTH,ComponentDrill
T1C0.200
; #@! TA.AperFunction,Plated,PTH,ViaDrill
T2C0.300
; #@! TA.AperFunction,Plated,PTH,ComponentDrill
T3C0.700
; #@! TA.AperFunction,Plated,PTH,ComponentDrill
T4C1.000
; #@! TA.AperFunction,Plated,PTH,ComponentDrill
T5C1.500
; #@! TA.AperFunction,Plated,PTH,ComponentDrill
T6C1.700
%
G90
G05
T1
X111.2Y-88.7
X111.2Y-90.0
X111.2Y-91.3
X112.5Y-88.7
X112.5Y-90.0
X112.5Y-91.3
X113.8Y-88.7
X113.8Y-90.0
X113.8Y-91.3
T2
X87.877Y-72.123
X87.877Y-74.623
X87.877Y-77.123
X87.877Y-79.623
X87.877Y-82.123
X87.877Y-84.623
X87.877Y-87.123
X87.877Y-89.623
X88.0Y-92.0
X88.0Y-94.5
X88.0Y-97.0
X88.0Y-99.5
X88.0Y-102.0
X88.0Y-104.5
X88.0Y-107.0
X88.5Y-67.0
X88.5Y-71.2
X88.5Y-108.1
X88.5Y-112.5
X90.0Y-68.3
X90.0Y-111.2
X90.1Y-70.0
X93.9Y-73.0
X94.1Y-85.3
X94.5Y-94.0
X95.0Y-88.0
X95.0Y-91.0
X101.0Y-58.0
X101.9Y-109.4
X101.9Y-111.2
X102.0Y-68.3
X102.0Y-70.1
X103.4Y-67.0
X103.4Y-71.3
X103.4Y-108.1
X103.4Y-112.5
X104.877Y-72.623
X104.877Y-75.123
X104.877Y-77.623
X104.877Y-80.123
X104.877Y-82.623
X104.877Y-85.123
X104.877Y-87.623
X104.877Y-90.123
X105.0Y-93.0
X105.0Y-95.0
X105.0Y-97.5
X105.0Y-100.0
X105.0Y-102.5
X105.0Y-105.0
X105.0Y-107.5
X106.4Y-90.5
X106.401Y-91.418
X107.2Y-91.948
X107.6Y-88.7
X107.677Y-85.834
X108.0Y-55.5
X108.0Y-123.5
X108.5Y-97.5
X108.5Y-100.0
X108.5Y-102.5
X108.5Y-109.0
X108.6Y-86.2
X108.603Y-93.395
X109.401Y-93.437
X109.8Y-96.5
X109.83Y-86.59
X110.05Y-105.5
X110.2Y-93.409
X110.5Y-55.5
X110.5Y-123.5
X111.0Y-85.5
X111.1Y-95.4
X111.434Y-94.534
X112.9Y-94.1
X113.0Y-55.5
X113.0Y-112.0
X113.0Y-123.5
X113.026Y-84.821
X113.5Y-67.5
X113.8Y-96.5
X114.3Y-95.7
X114.5Y-105.5
X115.171Y-80.781
X115.2Y-74.8
X115.5Y-55.5
X115.5Y-123.5
X115.6Y-86.4
X116.0Y-78.4
X116.2Y-93.3
X116.3Y-95.7
X116.468Y-89.733
X117.288Y-86.618
X117.909Y-77.409
X118.0Y-55.5
X118.0Y-85.7
X118.0Y-123.5
X118.3Y-92.6
X118.4Y-113.0
X118.5Y-68.7
X118.7Y-96.5
X119.65Y-114.95
X120.0Y-103.0
X120.1Y-66.9
X120.5Y-55.5
X120.5Y-68.7
X120.5Y-79.0
X120.5Y-99.0
X120.5Y-123.5
X121.6Y-103.0
X121.6Y-112.1
X122.0Y-65.3
X122.5Y-84.0
X123.0Y-55.1
X123.0Y-99.0
X123.0Y-103.0
X123.0Y-123.5
X124.5Y-77.5
X124.5Y-95.4
X124.8Y-86.7
X125.0Y-84.0
X125.0Y-99.0
X125.0Y-104.0
X125.5Y-55.1
X125.5Y-67.0
X125.5Y-75.5
X125.5Y-123.5
X126.2Y-108.5
X126.3Y-107.3
X126.7Y-92.4
X126.7Y-115.9
X127.0Y-99.0
X127.0Y-104.0
X127.1Y-65.2
X128.0Y-55.1
X128.0Y-123.5
X128.6Y-69.7
X129.0Y-77.174
X129.0Y-79.5
X129.2Y-114.2
X129.5Y-92.9
X129.6Y-84.1
X129.92Y-98.532
X130.0Y-102.5
X130.3Y-110.8
X130.33Y-97.818
X130.5Y-55.1
X130.5Y-123.5
X130.7Y-68.9
X131.0Y-71.5
X131.8Y-82.0
X131.9Y-105.5
X131.969Y-98.279
X132.5Y-74.0
X132.5Y-102.5
X132.565Y-85.283
X133.0Y-55.5
X133.0Y-123.5
X133.5Y-112.2
X133.869Y-85.691
X134.0Y-70.5
X134.0Y-115.0
X134.1Y-97.8
X134.5Y-72.0
X134.5Y-75.174
X134.5Y-77.5
X134.9Y-107.1
X135.0Y-68.5
X135.5Y-55.5
X135.5Y-64.0
X135.5Y-123.5
X136.4Y-98.5
X136.5Y-70.0
X136.9Y-85.9
X137.0Y-88.4
X137.5Y-72.5
X137.5Y-74.826
X137.5Y-77.674
X137.5Y-80.0
X137.5Y-82.2
X137.5Y-91.9
X138.0Y-55.5
X138.0Y-115.0
X138.0Y-123.5
X138.2Y-97.8
X138.3Y-82.7
X139.0Y-64.0
X139.1Y-106.3
X139.2Y-93.1
X139.7Y-109.4
X140.0Y-70.0
X140.0Y-72.623
X140.0Y-74.949
X140.0Y-77.674
X140.0Y-80.0
X140.5Y-55.5
X140.5Y-123.5
X140.8Y-90.2
X141.5Y-97.8
X141.5Y-106.5
X142.5Y-62.5
X142.5Y-65.0
X142.5Y-67.5
X142.5Y-70.0
X142.5Y-72.623
X142.5Y-74.949
X142.5Y-115.5
X142.7Y-77.3
X142.8Y-82.3
X143.0Y-55.5
X143.0Y-123.5
X144.0Y-82.4
X144.2Y-87.9
X144.235Y-89.751
X144.6Y-101.8
X144.7Y-80.7
X145.0Y-62.5
X145.0Y-65.0
X145.0Y-67.5
X145.0Y-70.0
X145.0Y-72.623
X145.0Y-74.949
X145.5Y-55.5
X145.5Y-123.5
X145.7Y-108.3
X145.9Y-87.7
X147.0Y-109.0
X147.5Y-62.5
X147.5Y-65.0
X147.5Y-67.5
X147.5Y-70.0
X147.5Y-72.623
X147.5Y-74.949
X148.0Y-55.5
X148.0Y-123.5
X149.5Y-115.5
X149.9Y-89.5
X150.0Y-98.8
X150.1Y-82.9
X150.1Y-104.0
X150.2Y-77.3
X150.3Y-100.7
X150.362Y-93.609
X150.5Y-55.5
X150.5Y-123.5
X150.8Y-99.1
X151.0Y-62.5
X151.0Y-65.0
X151.0Y-67.5
X151.0Y-70.0
X151.0Y-72.623
X151.0Y-74.949
X151.8Y-94.0
X152.7Y-116.3
X152.9Y-123.9
X153.0Y-55.5
X153.024Y-115.524
X153.194Y-91.106
X153.2Y-80.7
X153.2Y-95.9
X153.2Y-97.0
X153.2Y-101.2
X153.226Y-87.826
X153.3Y-86.8
X153.3Y-92.2
X153.324Y-88.976
X153.5Y-62.5
X153.5Y-65.0
X153.5Y-67.5
X153.5Y-70.0
X153.5Y-72.623
X153.5Y-74.949
X153.5Y-77.623
X153.799Y-98.411
X154.2Y-81.8
X154.365Y-106.789
X155.351Y-104.95
X155.377Y-90.123
X155.4Y-123.9
X155.4Y-95.0
X155.4Y-97.326
X155.4Y-102.5
X155.424Y-85.076
X155.451Y-87.697
X155.476Y-100.0
X155.5Y-55.5
X155.5Y-92.5
X155.5Y-110.0
X155.5Y-112.5
X155.504Y-115.496
X155.63Y-107.5
X155.929Y-62.5
X155.929Y-65.0
X155.929Y-67.5
X155.929Y-70.0
X155.929Y-72.623
X155.929Y-74.949
X155.929Y-77.623
X155.929Y-80.123
X155.929Y-82.623
X156.722Y-82.515
X157.694Y-93.899
X157.803Y-80.049
X157.853Y-77.623
X157.877Y-62.5
X157.877Y-65.0
X157.877Y-67.5
X157.877Y-70.0
X157.877Y-72.623
X157.877Y-74.949
X157.877Y-82.623
X157.877Y-90.123
X157.9Y-123.9
X157.924Y-87.576
X157.951Y-85.197
X157.976Y-100.0
X158.0Y-55.5
X158.0Y-92.5
X158.0Y-95.0
X158.0Y-97.326
X158.0Y-102.5
X158.0Y-105.0
X158.0Y-112.5
X158.0Y-115.0
X158.077Y-107.423
X158.399Y-110.0
X160.2Y-97.326
X160.291Y-77.561
X160.377Y-62.5
X160.377Y-65.0
X160.377Y-67.5
X160.377Y-70.0
X160.377Y-72.623
X160.377Y-74.949
X160.377Y-80.123
X160.377Y-85.123
X160.377Y-87.623
X160.4Y-123.9
X160.424Y-90.076
X160.451Y-82.697
X160.476Y-100.0
X160.5Y-55.5
X160.5Y-92.5
X160.5Y-95.0
X160.5Y-102.5
X160.5Y-105.0
X160.5Y-107.5
X160.5Y-110.0
X160.5Y-112.5
X160.5Y-115.0
X162.853Y-77.623
X162.877Y-62.5
X162.877Y-65.0
X162.877Y-67.5
X162.877Y-70.0
X162.877Y-72.623
X162.877Y-74.949
X162.877Y-82.623
X162.877Y-85.123
X162.877Y-87.623
X162.877Y-90.123
X162.9Y-123.9
X162.951Y-80.197
X162.976Y-100.0
X163.0Y-55.5
X163.0Y-92.5
X163.0Y-95.0
X163.0Y-97.326
X163.0Y-102.5
X163.0Y-105.0
X163.0Y-107.5
X163.0Y-110.0
X163.0Y-112.5
X163.0Y-115.0
X165.303Y-72.549
X165.377Y-62.5
X165.377Y-65.0
X165.377Y-67.5
X165.377Y-70.0
X165.377Y-74.949
X165.377Y-80.123
X165.377Y-82.623
X165.377Y-85.123
X165.377Y-87.623
X165.377Y-90.123
X165.4Y-123.9
X165.439Y-77.709
X165.476Y-100.0
X165.489Y-97.337
X165.5Y-55.5
X165.5Y-92.5
X165.5Y-95.0
X165.5Y-102.5
X165.5Y-105.0
X165.5Y-107.5
X165.5Y-110.0
X165.5Y-112.5
X165.623Y-114.877
X166.8Y-64.5
X167.853Y-80.147
X167.877Y-62.5
X167.877Y-65.0
X167.877Y-67.5
X167.877Y-70.0
X167.877Y-72.623
X167.877Y-77.623
X167.877Y-82.623
X167.877Y-85.123
X167.877Y-87.623
X167.877Y-90.123
X167.877Y-92.623
X167.9Y-123.9
X167.951Y-75.197
X167.976Y-102.524
X168.0Y-55.5
X168.0Y-95.0
X168.0Y-97.5
X168.0Y-100.0
X168.0Y-105.0
X168.0Y-107.5
X168.0Y-110.0
X168.0Y-112.5
X168.0Y-115.0
X169.3Y-83.7
X170.377Y-62.5
X170.377Y-65.0
X170.377Y-67.5
X170.377Y-70.0
X170.377Y-75.123
X170.377Y-85.123
X170.377Y-87.623
X170.377Y-90.123
X170.377Y-92.623
X170.4Y-123.9
X170.451Y-72.697
X170.476Y-105.024
X170.5Y-55.5
X170.5Y-95.0
X170.5Y-97.5
X170.5Y-107.5
X170.5Y-110.0
X170.5Y-112.5
X170.5Y-115.0
X170.533Y-77.467
X170.551Y-79.949
X170.576Y-102.424
X170.656Y-99.844
X170.777Y-83.071
X172.877Y-70.0
X172.877Y-72.623
X172.877Y-75.123
X172.877Y-77.623
X172.877Y-82.623
X172.877Y-85.123
X172.877Y-87.623
X172.877Y-90.123
X172.9Y-123.9
X173.0Y-55.5
X173.0Y-95.0
X173.0Y-97.5
X173.0Y-100.0
X173.0Y-102.5
X173.0Y-105.0
X173.0Y-107.5
X173.0Y-110.0
X173.0Y-112.5
X173.301Y-80.547
X175.377Y-70.0
X175.377Y-72.623
X175.377Y-75.123
X175.377Y-80.123
X175.377Y-82.623
X175.377Y-85.123
X175.377Y-87.623
X175.377Y-90.123
X175.377Y-92.623
X175.4Y-123.9
X175.5Y-55.5
X175.5Y-95.0
X175.5Y-97.5
X175.5Y-100.0
X175.5Y-102.5
X175.5Y-105.0
X175.5Y-107.5
X175.5Y-110.0
X175.5Y-112.5
X175.5Y-115.0
X175.7Y-67.1
X175.801Y-78.047
X177.5Y-67.1
X177.877Y-70.0
X177.877Y-72.623
X177.877Y-77.623
X177.877Y-80.123
X177.877Y-82.623
X177.877Y-85.123
X177.877Y-87.623
X177.877Y-90.123
X177.877Y-92.623
X177.9Y-123.9
X178.0Y-55.5
X178.0Y-95.0
X178.0Y-97.5
X178.0Y-100.0
X178.0Y-102.5
X178.0Y-105.0
X178.0Y-107.5
X178.0Y-110.0
X178.0Y-112.5
X178.0Y-115.0
X178.301Y-75.547
X179.1Y-62.7
X179.1Y-65.7
X180.377Y-62.5
X180.377Y-65.0
X180.377Y-67.5
X180.377Y-70.0
X180.377Y-75.123
X180.377Y-77.623
X180.377Y-80.123
X180.377Y-82.623
X180.377Y-85.123
X180.377Y-87.623
X180.377Y-90.123
X180.377Y-92.623
X180.4Y-123.9
X180.5Y-55.5
X180.5Y-95.0
X180.5Y-97.5
X180.5Y-100.0
X180.5Y-102.5
X180.5Y-105.0
X180.5Y-107.5
X180.5Y-110.0
X180.5Y-112.5
X180.5Y-115.0
X180.801Y-73.047
X182.877Y-62.5
X182.877Y-65.0
X182.877Y-67.5
X182.877Y-72.623
X182.877Y-75.123
X182.877Y-77.623
X182.877Y-80.123
X182.877Y-82.623
X182.877Y-85.123
X182.877Y-87.623
X182.877Y-90.123
X182.877Y-92.623
X183.0Y-55.5
X183.0Y-95.0
X183.0Y-97.5
X183.0Y-100.0
X183.0Y-102.5
X183.0Y-105.0
X183.0Y-107.5
X183.0Y-110.0
X183.0Y-112.5
X183.0Y-115.0
X183.0Y-123.5
X183.362Y-70.486
X185.377Y-62.5
X185.377Y-65.0
X185.377Y-70.0
X185.377Y-72.623
X185.377Y-75.123
X185.377Y-77.623
X185.377Y-80.123
X185.377Y-82.623
X185.377Y-85.123
X185.377Y-87.623
X185.377Y-90.123
X185.377Y-92.623
X185.5Y-55.5
X185.5Y-95.0
X185.5Y-97.5
X185.5Y-100.0
X185.5Y-102.5
X185.5Y-105.0
X185.5Y-107.5
X185.5Y-110.0
X185.5Y-112.5
X185.5Y-115.0
X185.5Y-123.5
X185.862Y-67.986
X187.877Y-62.5
X187.877Y-67.5
X187.877Y-70.0
X187.877Y-72.623
X187.877Y-75.123
X187.877Y-77.623
X187.877Y-80.123
X187.877Y-82.623
X187.877Y-85.123
X187.877Y-87.623
X187.877Y-90.123
X187.877Y-92.623
X188.0Y-55.5
X188.0Y-95.0
X188.0Y-97.5
X188.0Y-100.0
X188.0Y-102.5
X188.0Y-105.0
X188.0Y-107.5
X188.0Y-110.0
X188.0Y-112.5
X188.0Y-115.0
X188.0Y-123.5
X188.362Y-65.486
X190.377Y-65.0
X190.377Y-67.5
X190.377Y-70.0
X190.377Y-72.623
X190.377Y-75.123
X190.377Y-77.623
X190.377Y-80.123
X190.377Y-82.623
X190.377Y-85.123
X190.377Y-87.623
X190.377Y-90.123
X190.377Y-92.623
X190.5Y-55.5
X190.5Y-95.0
X190.5Y-97.5
X190.5Y-100.0
X190.5Y-102.5
X190.5Y-105.0
X190.5Y-107.5
X190.5Y-110.0
X190.5Y-112.5
X190.5Y-115.0
X190.5Y-123.5
X190.862Y-62.986
X192.877Y-62.5
X192.877Y-65.0
X192.877Y-67.5
X192.877Y-70.0
X192.877Y-72.623
X192.877Y-75.123
X192.877Y-77.623
X192.877Y-80.123
X192.877Y-82.623
X192.877Y-85.123
X192.877Y-87.623
X192.877Y-90.123
X192.877Y-92.623
X193.0Y-55.5
X193.0Y-95.0
X193.0Y-97.5
X193.0Y-100.0
X193.0Y-102.5
X193.0Y-105.0
X193.0Y-107.5
X193.0Y-110.0
X193.0Y-112.5
X193.0Y-115.0
X193.0Y-123.5
X195.377Y-62.5
X195.377Y-65.0
X195.377Y-67.5
X195.377Y-70.0
X195.377Y-72.623
X195.377Y-75.123
X195.377Y-77.623
X195.377Y-80.123
X195.377Y-82.623
X195.377Y-85.123
X195.377Y-87.623
X195.377Y-90.123
X195.377Y-92.623
X195.5Y-55.5
X195.5Y-95.0
X195.5Y-97.5
X195.5Y-100.0
X195.5Y-102.5
X195.5Y-105.0
X195.5Y-107.5
X195.5Y-110.0
X195.5Y-112.5
X195.5Y-115.0
X195.5Y-123.5
T3
X107.3Y-107.6
X112.5Y-81.0
X117.5Y-108.0
X117.5Y-110.5
X119.7Y-101.0
X123.5Y-81.8
X123.5Y-85.4
X123.5Y-88.2
X123.5Y-90.8
X123.5Y-93.4
X126.2Y-81.8
X131.5Y-91.5
X131.6Y-88.4
X135.0Y-89.0
X138.9Y-89.1
X142.5Y-88.5
X143.5Y-95.6
X143.6Y-91.7
T4
X95.445Y-104.507
X95.46Y-75.04
X97.735Y-116.42
X97.925Y-63.0
X97.985Y-104.507
X98.0Y-75.04
X100.275Y-116.42
X100.465Y-63.0
X100.525Y-104.507
X100.54Y-75.04
X104.53Y-57.75
X104.53Y-60.29
X104.53Y-118.71
X104.53Y-121.25
X107.07Y-57.75
X107.07Y-60.29
X107.07Y-118.71
X107.07Y-121.25
X107.5Y-78.46
X107.5Y-81.0
X109.61Y-57.75
X109.61Y-60.29
X109.61Y-118.71
X109.61Y-121.25
X112.15Y-57.75
X112.15Y-60.29
X112.15Y-118.71
X112.15Y-121.25
X114.69Y-57.75
X114.69Y-60.29
X114.69Y-118.71
X114.69Y-121.25
X117.23Y-57.75
X117.23Y-60.29
X117.23Y-118.71
X117.23Y-121.25
X119.77Y-57.75
X119.77Y-60.29
X119.77Y-118.71
X119.77Y-121.25
X122.31Y-57.75
X122.31Y-60.29
X122.31Y-118.71
X122.31Y-121.25
X124.85Y-57.75
X124.85Y-60.29
X124.85Y-118.71
X124.85Y-121.25
X127.39Y-57.75
X127.39Y-60.29
X127.39Y-118.71
X127.39Y-121.25
X129.93Y-57.75
X129.93Y-60.29
X129.93Y-118.71
X129.93Y-121.25
X132.47Y-57.75
X132.47Y-60.29
X132.47Y-118.71
X132.47Y-121.25
X135.01Y-57.75
X135.01Y-60.29
X135.01Y-118.71
X135.01Y-121.25
X137.55Y-57.75
X137.55Y-60.29
X137.55Y-118.71
X137.55Y-121.25
X140.09Y-57.75
X140.09Y-60.29
X140.09Y-118.71
X140.09Y-121.25
X142.63Y-57.75
X142.63Y-60.29
X142.63Y-118.71
X142.63Y-121.25
X145.17Y-57.75
X145.17Y-60.29
X145.17Y-118.71
X145.17Y-121.25
X147.71Y-57.75
X147.71Y-60.29
X147.71Y-118.71
X147.71Y-121.25
X150.25Y-57.75
X150.25Y-60.29
X150.25Y-118.71
X150.25Y-121.25
X152.79Y-57.75
X152.79Y-60.29
X152.79Y-118.71
X152.79Y-121.25
X155.33Y-57.75
X155.33Y-60.29
X155.33Y-118.71
X155.33Y-121.25
X157.87Y-57.75
X157.87Y-60.29
X157.87Y-118.71
X157.87Y-121.25
X160.41Y-57.75
X160.41Y-60.29
X160.41Y-118.71
X160.41Y-121.25
X162.95Y-57.75
X162.95Y-60.29
X162.95Y-118.71
X162.95Y-121.25
X165.49Y-57.75
X165.49Y-60.29
X165.49Y-118.71
X165.49Y-121.25
X168.03Y-57.75
X168.03Y-60.29
X168.03Y-118.71
X168.03Y-121.25
X170.57Y-57.75
X170.57Y-60.29
X170.57Y-118.71
X170.57Y-121.25
X173.11Y-57.75
X173.11Y-60.29
X173.11Y-118.71
X173.11Y-121.25
X175.65Y-57.75
X175.65Y-60.29
X175.65Y-118.71
X175.65Y-121.25
X178.19Y-57.75
X178.19Y-60.29
X178.19Y-118.71
X178.19Y-121.25
X180.73Y-57.75
X180.73Y-60.29
X180.73Y-118.71
X180.73Y-121.25
X183.27Y-57.75
X183.27Y-60.29
X183.27Y-118.71
X183.27Y-121.25
X185.81Y-57.75
X185.81Y-60.29
X185.81Y-118.71
X185.81Y-121.25
X188.35Y-57.75
X188.35Y-60.29
X188.35Y-118.71
X188.35Y-121.25
X190.89Y-57.75
X190.89Y-60.29
X190.89Y-118.71
X190.89Y-121.25
X193.43Y-57.75
X193.43Y-60.29
X193.43Y-118.71
X193.43Y-121.25
T5
X91.5Y-58.5
X91.5Y-120.5
T6
X88.96Y-55.96
X88.96Y-61.04
X88.96Y-117.96
X88.96Y-123.04
X94.04Y-55.96
X94.04Y-61.04
X94.04Y-117.96
X94.04Y-123.04
T0
M30
