%FSLAX45Y45*%
G04 Gerber Fmt 4.5, Leading zero omitted, Abs format (unit mm)*
G04 Created by KiCad (PCBNEW 6.0.6-3a73a75311~116~ubuntu20.04.1) date 2022-07-28 18:38:54*
%MOMM*%
%LPD*%
G01*
G04 APERTURE LIST*
%TA.AperFunction,Profile*%
%ADD10C,0.100000*%
%TD*%
%ADD11C,0.200000*%
G04 APERTURE END LIST*
D10*
X8700000Y-5400000D02*
X19700000Y-5400000D01*
X19700000Y-5400000D02*
X19700000Y-12500000D01*
X19700000Y-12500000D02*
X8700000Y-12500000D01*
X8700000Y-12500000D02*
X8700000Y-5400000D01*
D11*
X8952619Y-12815476D02*
X8952619Y-12615476D01*
X9000238Y-12615476D01*
X9028810Y-12625000D01*
X9047857Y-12644048D01*
X9057381Y-12663095D01*
X9066905Y-12701190D01*
X9066905Y-12729762D01*
X9057381Y-12767857D01*
X9047857Y-12786905D01*
X9028810Y-12805952D01*
X9000238Y-12815476D01*
X8952619Y-12815476D01*
X9152619Y-12815476D02*
X9152619Y-12682143D01*
X9152619Y-12720238D02*
X9162143Y-12701190D01*
X9171667Y-12691667D01*
X9190714Y-12682143D01*
X9209762Y-12682143D01*
X9276429Y-12815476D02*
X9276429Y-12682143D01*
X9276429Y-12615476D02*
X9266905Y-12625000D01*
X9276429Y-12634524D01*
X9285952Y-12625000D01*
X9276429Y-12615476D01*
X9276429Y-12634524D01*
X9400238Y-12815476D02*
X9381190Y-12805952D01*
X9371667Y-12786905D01*
X9371667Y-12615476D01*
X9505000Y-12815476D02*
X9485952Y-12805952D01*
X9476429Y-12786905D01*
X9476429Y-12615476D01*
X9733571Y-12815476D02*
X9733571Y-12615476D01*
X9800238Y-12758333D01*
X9866905Y-12615476D01*
X9866905Y-12815476D01*
X10047857Y-12815476D02*
X10047857Y-12710714D01*
X10038333Y-12691667D01*
X10019286Y-12682143D01*
X9981190Y-12682143D01*
X9962143Y-12691667D01*
X10047857Y-12805952D02*
X10028810Y-12815476D01*
X9981190Y-12815476D01*
X9962143Y-12805952D01*
X9952619Y-12786905D01*
X9952619Y-12767857D01*
X9962143Y-12748809D01*
X9981190Y-12739286D01*
X10028810Y-12739286D01*
X10047857Y-12729762D01*
X10143095Y-12682143D02*
X10143095Y-12882143D01*
X10143095Y-12691667D02*
X10162143Y-12682143D01*
X10200238Y-12682143D01*
X10219286Y-12691667D01*
X10228810Y-12701190D01*
X10238333Y-12720238D01*
X10238333Y-12777381D01*
X10228810Y-12796428D01*
X10219286Y-12805952D01*
X10200238Y-12815476D01*
X10162143Y-12815476D01*
X10143095Y-12805952D01*
X10324048Y-12796428D02*
X10333571Y-12805952D01*
X10324048Y-12815476D01*
X10314524Y-12805952D01*
X10324048Y-12796428D01*
X10324048Y-12815476D01*
X10324048Y-12691667D02*
X10333571Y-12701190D01*
X10324048Y-12710714D01*
X10314524Y-12701190D01*
X10324048Y-12691667D01*
X10324048Y-12710714D01*
M02*
