G04 #@! TF.GenerationSoftware,KiCad,Pcbnew,6.0.6-3a73a75311~116~ubuntu20.04.1*
G04 #@! TF.CreationDate,2022-07-28T18:37:22+02:00*
G04 #@! TF.ProjectId,H7DDCADC,48374444-4341-4444-932e-6b696361645f,initial*
G04 #@! TF.SameCoordinates,Original*
G04 #@! TF.FileFunction,Paste,Top*
G04 #@! TF.FilePolarity,Positive*
%FSLAX46Y46*%
G04 Gerber Fmt 4.6, Leading zero omitted, Abs format (unit mm)*
G04 Created by KiCad (PCBNEW 6.0.6-3a73a75311~116~ubuntu20.04.1) date 2022-07-28 18:37:22*
%MOMM*%
%LPD*%
G01*
G04 APERTURE LIST*
G04 Aperture macros list*
%AMRoundRect*
0 Rectangle with rounded corners*
0 $1 Rounding radius*
0 $2 $3 $4 $5 $6 $7 $8 $9 X,Y pos of 4 corners*
0 Add a 4 corners polygon primitive as box body*
4,1,4,$2,$3,$4,$5,$6,$7,$8,$9,$2,$3,0*
0 Add four circle primitives for the rounded corners*
1,1,$1+$1,$2,$3*
1,1,$1+$1,$4,$5*
1,1,$1+$1,$6,$7*
1,1,$1+$1,$8,$9*
0 Add four rect primitives between the rounded corners*
20,1,$1+$1,$2,$3,$4,$5,0*
20,1,$1+$1,$4,$5,$6,$7,0*
20,1,$1+$1,$6,$7,$8,$9,0*
20,1,$1+$1,$8,$9,$2,$3,0*%
%AMFreePoly0*
4,1,16,-0.114183,0.524047,0.172036,0.524047,0.221415,0.503594,0.241868,0.454215,0.241868,-0.454215,0.221415,-0.503594,0.172036,-0.524047,-0.114185,-0.524048,-0.163565,-0.503592,-0.221415,-0.445743,-0.241868,-0.396364,-0.241868,0.396364,-0.221415,0.445743,-0.163564,0.503594,-0.114185,0.524048,-0.114183,0.524047,-0.114183,0.524047,$1*%
%AMFreePoly1*
4,1,15,0.163564,0.503594,0.221415,0.445742,0.241868,0.396362,0.241869,-0.396364,0.221413,-0.445744,0.163564,-0.503594,0.114185,-0.524047,-0.172036,-0.524047,-0.221415,-0.503594,-0.241868,-0.454215,-0.241868,0.454215,-0.221415,0.503594,-0.172036,0.524047,0.114185,0.524047,0.163564,0.503594,0.163564,0.503594,$1*%
%AMFreePoly2*
4,1,51,0.157533,0.237016,0.164685,0.232398,0.173112,0.231176,0.192112,0.214689,0.213244,0.201044,0.216768,0.193294,0.223199,0.187713,0.230281,0.163574,0.240692,0.140675,0.239470,0.132249,0.241867,0.124079,0.241867,-0.124079,0.237016,-0.157533,0.232398,-0.164685,0.231176,-0.173112,0.214689,-0.192112,0.201044,-0.213244,0.193294,-0.216768,0.187713,-0.223199,0.163574,-0.230281,
0.140675,-0.240692,0.132249,-0.239470,0.124079,-0.241867,-0.124079,-0.241867,-0.157533,-0.237016,-0.164685,-0.232398,-0.173112,-0.231176,-0.192112,-0.214689,-0.213244,-0.201044,-0.216768,-0.193294,-0.223199,-0.187713,-0.230281,-0.163574,-0.240692,-0.140675,-0.239470,-0.132249,-0.241867,-0.124079,-0.241867,0.026500,-0.238856,0.047262,-0.239163,0.051592,-0.237891,0.053920,-0.237016,0.059954,
-0.221280,0.084326,-0.207368,0.109789,-0.109788,0.207368,-0.092981,0.219918,-0.090134,0.223199,-0.087587,0.223946,-0.082703,0.227593,-0.054341,0.233699,-0.026500,0.241867,0.124079,0.241867,0.157533,0.237016,0.157533,0.237016,$1*%
%AMFreePoly3*
4,1,16,-0.396362,0.241868,0.396364,0.241868,0.445743,0.221415,0.503594,0.163563,0.524047,0.114183,0.524047,-0.172036,0.503594,-0.221415,0.454215,-0.241868,-0.454215,-0.241868,-0.503594,-0.221415,-0.524047,-0.172036,-0.524047,0.114185,-0.503594,0.163564,-0.445743,0.221415,-0.396364,0.241869,-0.396362,0.241868,-0.396362,0.241868,$1*%
%AMFreePoly4*
4,1,15,0.503594,0.221415,0.524047,0.172036,0.524048,-0.114185,0.503592,-0.163565,0.445743,-0.221415,0.396364,-0.241868,-0.396364,-0.241869,-0.445744,-0.221413,-0.503594,-0.163564,-0.524047,-0.114185,-0.524047,0.172036,-0.503594,0.221415,-0.454215,0.241868,0.454215,0.241868,0.503594,0.221415,0.503594,0.221415,$1*%
%AMFreePoly5*
4,1,51,0.157533,0.237016,0.164685,0.232398,0.173112,0.231176,0.192112,0.214689,0.213244,0.201044,0.216768,0.193294,0.223199,0.187713,0.230281,0.163574,0.240692,0.140675,0.239470,0.132249,0.241867,0.124079,0.241867,-0.026500,0.238857,-0.047257,0.239164,-0.051592,0.237891,-0.053923,0.237016,-0.059954,0.221280,-0.084324,0.207368,-0.109788,0.109789,-0.207368,0.092980,-0.219919,
0.090134,-0.223199,0.087587,-0.223946,0.082703,-0.227593,0.054341,-0.233699,0.026500,-0.241867,-0.124079,-0.241867,-0.157533,-0.237016,-0.164685,-0.232398,-0.173112,-0.231176,-0.192112,-0.214689,-0.213244,-0.201044,-0.216768,-0.193294,-0.223199,-0.187713,-0.230281,-0.163574,-0.240692,-0.140675,-0.239470,-0.132249,-0.241867,-0.124079,-0.241867,0.124079,-0.237016,0.157533,-0.232398,0.164685,
-0.231176,0.173112,-0.214689,0.192112,-0.201044,0.213244,-0.193294,0.216768,-0.187713,0.223199,-0.163574,0.230281,-0.140675,0.240692,-0.132249,0.239470,-0.124079,0.241867,0.124079,0.241867,0.157533,0.237016,0.157533,0.237016,$1*%
%AMFreePoly6*
4,1,51,0.157533,0.237016,0.164685,0.232398,0.173112,0.231176,0.192112,0.214689,0.213244,0.201044,0.216768,0.193294,0.223199,0.187713,0.230281,0.163574,0.240692,0.140675,0.239470,0.132249,0.241867,0.124079,0.241867,-0.124079,0.237016,-0.157533,0.232398,-0.164685,0.231176,-0.173112,0.214689,-0.192112,0.201044,-0.213244,0.193294,-0.216768,0.187713,-0.223199,0.163574,-0.230281,
0.140675,-0.240692,0.132249,-0.239470,0.124079,-0.241867,-0.026500,-0.241867,-0.047257,-0.238857,-0.051592,-0.239164,-0.053923,-0.237891,-0.059954,-0.237016,-0.084324,-0.221280,-0.109788,-0.207368,-0.207368,-0.109789,-0.219919,-0.092980,-0.223199,-0.090134,-0.223946,-0.087587,-0.227593,-0.082703,-0.233699,-0.054341,-0.241867,-0.026500,-0.241867,0.124079,-0.237016,0.157533,-0.232398,0.164685,
-0.231176,0.173112,-0.214689,0.192112,-0.201044,0.213244,-0.193294,0.216768,-0.187713,0.223199,-0.163574,0.230281,-0.140675,0.240692,-0.132249,0.239470,-0.124079,0.241867,0.124079,0.241867,0.157533,0.237016,0.157533,0.237016,$1*%
%AMFreePoly7*
4,1,51,0.047262,0.238856,0.051592,0.239163,0.053920,0.237891,0.059954,0.237016,0.084326,0.221280,0.109789,0.207368,0.207368,0.109788,0.219918,0.092981,0.223199,0.090134,0.223946,0.087587,0.227593,0.082703,0.233699,0.054341,0.241867,0.026500,0.241867,-0.124079,0.237016,-0.157533,0.232398,-0.164685,0.231176,-0.173112,0.214689,-0.192112,0.201044,-0.213244,0.193294,-0.216768,
0.187713,-0.223199,0.163574,-0.230281,0.140675,-0.240692,0.132249,-0.239470,0.124079,-0.241867,-0.124079,-0.241867,-0.157533,-0.237016,-0.164685,-0.232398,-0.173112,-0.231176,-0.192112,-0.214689,-0.213244,-0.201044,-0.216768,-0.193294,-0.223199,-0.187713,-0.230281,-0.163574,-0.240692,-0.140675,-0.239470,-0.132249,-0.241867,-0.124079,-0.241867,0.124079,-0.237016,0.157533,-0.232398,0.164685,
-0.231176,0.173112,-0.214689,0.192112,-0.201044,0.213244,-0.193294,0.216768,-0.187713,0.223199,-0.163574,0.230281,-0.140675,0.240692,-0.132249,0.239470,-0.124079,0.241867,0.026500,0.241867,0.047262,0.238856,0.047262,0.238856,$1*%
G04 Aperture macros list end*
%ADD10RoundRect,0.155000X-0.155000X0.212500X-0.155000X-0.212500X0.155000X-0.212500X0.155000X0.212500X0*%
%ADD11RoundRect,0.155000X0.212500X0.155000X-0.212500X0.155000X-0.212500X-0.155000X0.212500X-0.155000X0*%
%ADD12RoundRect,0.160000X-0.197500X-0.160000X0.197500X-0.160000X0.197500X0.160000X-0.197500X0.160000X0*%
%ADD13RoundRect,0.250000X-0.250000X-0.475000X0.250000X-0.475000X0.250000X0.475000X-0.250000X0.475000X0*%
%ADD14RoundRect,0.250000X0.250000X0.475000X-0.250000X0.475000X-0.250000X-0.475000X0.250000X-0.475000X0*%
%ADD15RoundRect,0.160000X-0.160000X0.197500X-0.160000X-0.197500X0.160000X-0.197500X0.160000X0.197500X0*%
%ADD16RoundRect,0.250000X-0.450000X0.262500X-0.450000X-0.262500X0.450000X-0.262500X0.450000X0.262500X0*%
%ADD17R,0.250000X0.750000*%
%ADD18RoundRect,0.100000X-0.100000X0.712500X-0.100000X-0.712500X0.100000X-0.712500X0.100000X0.712500X0*%
%ADD19R,1.500000X0.400000*%
%ADD20RoundRect,0.160000X0.197500X0.160000X-0.197500X0.160000X-0.197500X-0.160000X0.197500X-0.160000X0*%
%ADD21RoundRect,0.250000X0.450000X-0.262500X0.450000X0.262500X-0.450000X0.262500X-0.450000X-0.262500X0*%
%ADD22RoundRect,0.250000X0.262500X0.450000X-0.262500X0.450000X-0.262500X-0.450000X0.262500X-0.450000X0*%
%ADD23RoundRect,0.250000X-0.262500X-0.450000X0.262500X-0.450000X0.262500X0.450000X-0.262500X0.450000X0*%
%ADD24RoundRect,0.250000X-0.475000X0.250000X-0.475000X-0.250000X0.475000X-0.250000X0.475000X0.250000X0*%
%ADD25FreePoly0,0.000000*%
%ADD26FreePoly1,0.000000*%
%ADD27RoundRect,0.250000X-0.274047X-0.274047X0.274047X-0.274047X0.274047X0.274047X-0.274047X0.274047X0*%
%ADD28FreePoly2,0.000000*%
%ADD29FreePoly3,0.000000*%
%ADD30FreePoly4,0.000000*%
%ADD31FreePoly5,0.000000*%
%ADD32FreePoly6,0.000000*%
%ADD33FreePoly7,0.000000*%
%ADD34RoundRect,0.050000X-0.325000X-0.050000X0.325000X-0.050000X0.325000X0.050000X-0.325000X0.050000X0*%
%ADD35RoundRect,0.050000X-0.050000X-0.325000X0.050000X-0.325000X0.050000X0.325000X-0.050000X0.325000X0*%
%ADD36RoundRect,0.250000X0.475000X-0.250000X0.475000X0.250000X-0.475000X0.250000X-0.475000X-0.250000X0*%
%ADD37RoundRect,0.155000X-0.212500X-0.155000X0.212500X-0.155000X0.212500X0.155000X-0.212500X0.155000X0*%
%ADD38R,0.750000X0.250000*%
%ADD39RoundRect,0.150000X0.150000X-0.825000X0.150000X0.825000X-0.150000X0.825000X-0.150000X-0.825000X0*%
%ADD40R,2.000000X1.800000*%
%ADD41R,1.650000X2.540000*%
%ADD42RoundRect,0.150000X0.150000X-0.512500X0.150000X0.512500X-0.150000X0.512500X-0.150000X-0.512500X0*%
%ADD43R,0.360000X0.250000*%
%ADD44RoundRect,0.160000X0.160000X-0.197500X0.160000X0.197500X-0.160000X0.197500X-0.160000X-0.197500X0*%
%ADD45R,1.400000X0.300000*%
%ADD46R,1.050000X1.000000*%
%ADD47R,2.200000X1.050000*%
%ADD48RoundRect,0.155000X0.155000X-0.212500X0.155000X0.212500X-0.155000X0.212500X-0.155000X-0.212500X0*%
%ADD49R,1.800000X2.100000*%
%ADD50R,1.560000X0.650000*%
%ADD51RoundRect,0.150000X-0.512500X-0.150000X0.512500X-0.150000X0.512500X0.150000X-0.512500X0.150000X0*%
G04 APERTURE END LIST*
D10*
X144800000Y-87832500D03*
X144800000Y-88967500D03*
D11*
X140467500Y-82700000D03*
X139332500Y-82700000D03*
D12*
X151202500Y-94800000D03*
X152397500Y-94800000D03*
D13*
X147250000Y-93600000D03*
X149150000Y-93600000D03*
X99550000Y-119500000D03*
X101450000Y-119500000D03*
D14*
X125450000Y-105800000D03*
X123550000Y-105800000D03*
D15*
X173000000Y-113990000D03*
X173000000Y-115185000D03*
D11*
X136367500Y-97800000D03*
X135232500Y-97800000D03*
D12*
X151302500Y-86100000D03*
X152497500Y-86100000D03*
D16*
X132900000Y-104587500D03*
X132900000Y-106412500D03*
D17*
X144250000Y-83450000D03*
X143750000Y-83450000D03*
X143250000Y-83450000D03*
X142750000Y-83450000D03*
X142750000Y-86550000D03*
X143250000Y-86550000D03*
X143750000Y-86550000D03*
X144250000Y-86550000D03*
D12*
X119902500Y-89000000D03*
X121097500Y-89000000D03*
D16*
X128700000Y-65787500D03*
X128700000Y-67612500D03*
D18*
X136475000Y-91887500D03*
X135825000Y-91887500D03*
X135175000Y-91887500D03*
X134525000Y-91887500D03*
X134525000Y-96112500D03*
X135175000Y-96112500D03*
X135825000Y-96112500D03*
X136475000Y-96112500D03*
D13*
X97050000Y-78000000D03*
X98950000Y-78000000D03*
D19*
X146170000Y-106150000D03*
X146170000Y-106800000D03*
X146170000Y-107450000D03*
X148830000Y-107450000D03*
X148830000Y-106800000D03*
X148830000Y-106150000D03*
D11*
X140367500Y-97800000D03*
X139232500Y-97800000D03*
D13*
X147250000Y-88400000D03*
X149150000Y-88400000D03*
D20*
X121097500Y-88000000D03*
X119902500Y-88000000D03*
D21*
X90500000Y-109412500D03*
X90500000Y-107587500D03*
D19*
X130870000Y-64150000D03*
X130870000Y-63500000D03*
X130870000Y-62850000D03*
X128210000Y-62850000D03*
X128210000Y-63500000D03*
X128210000Y-64150000D03*
D21*
X88500000Y-70112500D03*
X88500000Y-68287500D03*
D16*
X96500000Y-80087500D03*
X96500000Y-81912500D03*
D22*
X103500000Y-81500000D03*
X101675000Y-81500000D03*
D23*
X122787500Y-112100000D03*
X124612500Y-112100000D03*
D14*
X141750000Y-112600000D03*
X139850000Y-112600000D03*
D13*
X111050000Y-96500000D03*
X112950000Y-96500000D03*
D22*
X94412500Y-79000000D03*
X92587500Y-79000000D03*
D13*
X175650000Y-65710000D03*
X177550000Y-65710000D03*
D24*
X118387500Y-114000000D03*
X118387500Y-115900000D03*
D12*
X151202500Y-91100000D03*
X152397500Y-91100000D03*
X151202500Y-87900000D03*
X152397500Y-87900000D03*
D16*
X147000000Y-110087500D03*
X147000000Y-111912500D03*
D20*
X121097500Y-87000000D03*
X119902500Y-87000000D03*
X121097500Y-90000000D03*
X119902500Y-90000000D03*
D22*
X99912500Y-95587500D03*
X98087500Y-95587500D03*
D11*
X108267500Y-89600000D03*
X107132500Y-89600000D03*
D13*
X147250000Y-82900000D03*
X149150000Y-82900000D03*
D12*
X119902500Y-86000000D03*
X121097500Y-86000000D03*
D21*
X99300000Y-99612500D03*
X99300000Y-97787500D03*
D24*
X125600000Y-63450000D03*
X125600000Y-65350000D03*
D13*
X98850000Y-60000000D03*
X100750000Y-60000000D03*
D21*
X126200000Y-72412500D03*
X126200000Y-70587500D03*
D12*
X151202500Y-89000000D03*
X152397500Y-89000000D03*
X119902500Y-96000000D03*
X121097500Y-96000000D03*
D23*
X92712500Y-97775000D03*
X94537500Y-97775000D03*
X113500000Y-107500000D03*
X115325000Y-107500000D03*
D25*
X114100000Y-89350000D03*
D26*
X110900000Y-89350000D03*
X110900000Y-90650000D03*
D27*
X111850000Y-89350000D03*
X113150000Y-90650000D03*
D28*
X114100000Y-91600000D03*
D29*
X111850000Y-91600000D03*
D30*
X111850000Y-88400000D03*
D27*
X111850000Y-90650000D03*
D31*
X110900000Y-88400000D03*
D30*
X113150000Y-88400000D03*
D32*
X114100000Y-88400000D03*
D33*
X110900000Y-91600000D03*
D29*
X113150000Y-91600000D03*
D25*
X114100000Y-90650000D03*
D27*
X113150000Y-89350000D03*
D34*
X110025000Y-88200000D03*
X110025000Y-88600000D03*
X110025000Y-89000000D03*
X110025000Y-89400000D03*
X110025000Y-89800000D03*
X110025000Y-90200000D03*
X110025000Y-90600000D03*
X110025000Y-91000000D03*
X110025000Y-91400000D03*
X110025000Y-91800000D03*
D35*
X110700000Y-92475000D03*
X111100000Y-92475000D03*
X111500000Y-92475000D03*
X111900000Y-92475000D03*
X112300000Y-92475000D03*
X112700000Y-92475000D03*
X113100000Y-92475000D03*
X113500000Y-92475000D03*
X113900000Y-92475000D03*
X114300000Y-92475000D03*
D34*
X114975000Y-91800000D03*
X114975000Y-91400000D03*
X114975000Y-91000000D03*
X114975000Y-90600000D03*
X114975000Y-90200000D03*
X114975000Y-89800000D03*
X114975000Y-89400000D03*
X114975000Y-89000000D03*
X114975000Y-88600000D03*
X114975000Y-88200000D03*
D35*
X114300000Y-87525000D03*
X113900000Y-87525000D03*
X113500000Y-87525000D03*
X113100000Y-87525000D03*
X112700000Y-87525000D03*
X112300000Y-87525000D03*
X111900000Y-87525000D03*
X111500000Y-87525000D03*
X111100000Y-87525000D03*
X110700000Y-87525000D03*
D12*
X151202500Y-95900000D03*
X152397500Y-95900000D03*
D22*
X99500000Y-83912500D03*
X97675000Y-83912500D03*
D36*
X97500000Y-122450000D03*
X97500000Y-120550000D03*
D12*
X119902500Y-83000000D03*
X121097500Y-83000000D03*
X151302500Y-84900000D03*
X152497500Y-84900000D03*
D22*
X125087500Y-110050000D03*
X123262500Y-110050000D03*
D23*
X101587500Y-86500000D03*
X103412500Y-86500000D03*
D37*
X127632500Y-84100000D03*
X128767500Y-84100000D03*
D38*
X135550000Y-67250000D03*
X135550000Y-66750000D03*
X135550000Y-66250000D03*
X135550000Y-65750000D03*
X132450000Y-65750000D03*
X132450000Y-66250000D03*
X132450000Y-66750000D03*
X132450000Y-67250000D03*
D39*
X116690000Y-75575000D03*
X117960000Y-75575000D03*
X119230000Y-75575000D03*
X120500000Y-75575000D03*
X121770000Y-75575000D03*
X123040000Y-75575000D03*
X124310000Y-75575000D03*
X124310000Y-70625000D03*
X123040000Y-70625000D03*
X121770000Y-70625000D03*
X120500000Y-70625000D03*
X119230000Y-70625000D03*
X117960000Y-70625000D03*
X116690000Y-70625000D03*
D22*
X125087500Y-107950000D03*
X123262500Y-107950000D03*
D13*
X147250000Y-77300000D03*
X149150000Y-77300000D03*
D40*
X139100000Y-99660000D03*
X139100000Y-104740000D03*
X143300000Y-104740000D03*
X143300000Y-99660000D03*
D37*
X116232500Y-92600000D03*
X117367500Y-92600000D03*
D16*
X123500000Y-63487500D03*
X123500000Y-65312500D03*
D12*
X151202500Y-102400000D03*
X152397500Y-102400000D03*
D22*
X147400000Y-113900000D03*
X145575000Y-113900000D03*
D12*
X119902500Y-85000000D03*
X121097500Y-85000000D03*
D16*
X99500000Y-80087500D03*
X99500000Y-81912500D03*
X103400000Y-109387500D03*
X103400000Y-111212500D03*
D41*
X100540000Y-66460000D03*
X98000000Y-66460000D03*
X95460000Y-66460000D03*
X95460000Y-71540000D03*
X98000000Y-71540000D03*
X100540000Y-71540000D03*
D42*
X115550000Y-100837500D03*
X116500000Y-100837500D03*
X117450000Y-100837500D03*
X117450000Y-98562500D03*
X115550000Y-98562500D03*
D16*
X90500000Y-71087500D03*
X90500000Y-72912500D03*
D37*
X112300000Y-94900000D03*
X113435000Y-94900000D03*
D43*
X97080000Y-119000000D03*
X97920000Y-119000000D03*
D16*
X111000000Y-110087500D03*
X111000000Y-111912500D03*
X121600000Y-104287500D03*
X121600000Y-106112500D03*
D41*
X95460000Y-113000000D03*
X98000000Y-113000000D03*
X100540000Y-113000000D03*
X100540000Y-107920000D03*
X98000000Y-107920000D03*
X95460000Y-107920000D03*
D14*
X98950000Y-101500000D03*
X97050000Y-101500000D03*
D23*
X92587500Y-81500000D03*
X94412500Y-81500000D03*
D19*
X146170000Y-95550000D03*
X146170000Y-96200000D03*
X146170000Y-96850000D03*
X148830000Y-96850000D03*
X148830000Y-96200000D03*
X148830000Y-95550000D03*
D21*
X103400000Y-70112500D03*
X103400000Y-68287500D03*
D16*
X99500000Y-56087500D03*
X99500000Y-57912500D03*
D19*
X146170000Y-85150000D03*
X146170000Y-85800000D03*
X146170000Y-86450000D03*
X148830000Y-86450000D03*
X148830000Y-85800000D03*
X148830000Y-85150000D03*
D44*
X166800000Y-63697500D03*
X166800000Y-62502500D03*
D22*
X136712500Y-103600000D03*
X134887500Y-103600000D03*
D16*
X143800000Y-110887500D03*
X143800000Y-112712500D03*
D19*
X146170000Y-100750000D03*
X146170000Y-101400000D03*
X146170000Y-102050000D03*
X148830000Y-102050000D03*
X148830000Y-101400000D03*
X148830000Y-100750000D03*
D13*
X111050000Y-103500000D03*
X112950000Y-103500000D03*
D23*
X101587500Y-79000000D03*
X103412500Y-79000000D03*
D45*
X131950000Y-110250000D03*
X131950000Y-109750000D03*
X131950000Y-109250000D03*
X131950000Y-108750000D03*
X131950000Y-108250000D03*
X127550000Y-108250000D03*
X127550000Y-108750000D03*
X127550000Y-109250000D03*
X127550000Y-109750000D03*
X127550000Y-110250000D03*
D37*
X137365000Y-68600000D03*
X138500000Y-68600000D03*
D16*
X92500000Y-75087500D03*
X92500000Y-76912500D03*
D23*
X115587500Y-105500000D03*
X117412500Y-105500000D03*
D46*
X148950000Y-111700000D03*
D47*
X150475000Y-110225000D03*
X150475000Y-113175000D03*
D12*
X151202500Y-93300000D03*
X152397500Y-93300000D03*
D22*
X129012500Y-106200000D03*
X127187500Y-106200000D03*
D37*
X127532500Y-92900000D03*
X128667500Y-92900000D03*
D10*
X115200000Y-70632500D03*
X115200000Y-71767500D03*
D22*
X103387500Y-97825000D03*
X101562500Y-97825000D03*
D23*
X101537500Y-95600000D03*
X103362500Y-95600000D03*
D12*
X174202500Y-114000000D03*
X175397500Y-114000000D03*
D22*
X145612500Y-77300000D03*
X143787500Y-77300000D03*
D21*
X100000000Y-123412500D03*
X100000000Y-121587500D03*
D12*
X119902500Y-84000000D03*
X121097500Y-84000000D03*
D24*
X97000000Y-56050000D03*
X97000000Y-57950000D03*
D22*
X130200000Y-81800000D03*
X128375000Y-81800000D03*
D16*
X116187500Y-114037500D03*
X116187500Y-115862500D03*
D24*
X125187500Y-114000000D03*
X125187500Y-115900000D03*
D21*
X96700000Y-99612500D03*
X96700000Y-97787500D03*
D14*
X96450000Y-95575000D03*
X94550000Y-95575000D03*
D36*
X92500000Y-109450000D03*
X92500000Y-107550000D03*
D17*
X134250000Y-86550000D03*
X134750000Y-86550000D03*
X135250000Y-86550000D03*
X135750000Y-86550000D03*
X135750000Y-83450000D03*
X135250000Y-83450000D03*
X134750000Y-83450000D03*
X134250000Y-83450000D03*
D37*
X132332500Y-68600000D03*
X133467500Y-68600000D03*
D16*
X130900000Y-104587500D03*
X130900000Y-106412500D03*
D18*
X140475000Y-91887500D03*
X139825000Y-91887500D03*
X139175000Y-91887500D03*
X138525000Y-91887500D03*
X138525000Y-96112500D03*
X139175000Y-96112500D03*
X139825000Y-96112500D03*
X140475000Y-96112500D03*
D14*
X132150000Y-112200000D03*
X130250000Y-112200000D03*
D13*
X115550000Y-96500000D03*
X117450000Y-96500000D03*
D22*
X92387500Y-83925000D03*
X90562500Y-83925000D03*
D16*
X130700000Y-65787500D03*
X130700000Y-67612500D03*
D12*
X119902500Y-82000000D03*
X121097500Y-82000000D03*
X151202500Y-104800000D03*
X152397500Y-104800000D03*
D48*
X112300000Y-85387500D03*
X112300000Y-84252500D03*
D49*
X135450000Y-109350000D03*
X135450000Y-112250000D03*
X137750000Y-112250000D03*
X137750000Y-109350000D03*
D14*
X96000000Y-83912500D03*
X94100000Y-83912500D03*
D16*
X143800000Y-107287500D03*
X143800000Y-109112500D03*
D12*
X151202500Y-92200000D03*
X152397500Y-92200000D03*
X151202500Y-107500000D03*
X152397500Y-107500000D03*
D23*
X111087500Y-105500000D03*
X112912500Y-105500000D03*
D12*
X151202500Y-103600000D03*
X152397500Y-103600000D03*
D23*
X130287500Y-114200000D03*
X132112500Y-114200000D03*
D21*
X119200000Y-65112500D03*
X119200000Y-63287500D03*
D12*
X151202500Y-101200000D03*
X152397500Y-101200000D03*
D43*
X96580000Y-59500000D03*
X97420000Y-59500000D03*
D50*
X126150000Y-89550000D03*
X126150000Y-90500000D03*
X126150000Y-91450000D03*
X128850000Y-91450000D03*
X128850000Y-90500000D03*
X128850000Y-89550000D03*
D12*
X151202500Y-100000000D03*
X152397500Y-100000000D03*
D38*
X140550000Y-67250000D03*
X140550000Y-66750000D03*
X140550000Y-66250000D03*
X140550000Y-65750000D03*
X137450000Y-65750000D03*
X137450000Y-66250000D03*
X137450000Y-66750000D03*
X137450000Y-67250000D03*
D13*
X134850000Y-106000000D03*
X136750000Y-106000000D03*
D22*
X94512500Y-99775000D03*
X92687500Y-99775000D03*
D12*
X119902500Y-95000000D03*
X121097500Y-95000000D03*
D23*
X101587500Y-99825000D03*
X103412500Y-99825000D03*
D50*
X126150000Y-94450000D03*
X126150000Y-95400000D03*
X126150000Y-96350000D03*
X128850000Y-96350000D03*
X128850000Y-95400000D03*
X128850000Y-94450000D03*
D10*
X115200000Y-75532500D03*
X115200000Y-76667500D03*
D16*
X103500000Y-75087500D03*
X103500000Y-76912500D03*
D50*
X126150000Y-85550000D03*
X126150000Y-86500000D03*
X126150000Y-87450000D03*
X128850000Y-87450000D03*
X128850000Y-86500000D03*
X128850000Y-85550000D03*
D13*
X175650000Y-62700000D03*
X177550000Y-62700000D03*
D22*
X92912500Y-95575000D03*
X91087500Y-95575000D03*
D19*
X146270000Y-79450000D03*
X146270000Y-80100000D03*
X146270000Y-80750000D03*
X148930000Y-80750000D03*
X148930000Y-80100000D03*
X148930000Y-79450000D03*
D12*
X119902500Y-91000000D03*
X121097500Y-91000000D03*
D22*
X128312500Y-112100000D03*
X126487500Y-112100000D03*
D14*
X121575000Y-107975000D03*
X119675000Y-107975000D03*
D37*
X127532500Y-97800000D03*
X128667500Y-97800000D03*
D48*
X116200000Y-87467500D03*
X116200000Y-86332500D03*
D12*
X119902500Y-92000000D03*
X121097500Y-92000000D03*
D21*
X113500000Y-70512500D03*
X113500000Y-68687500D03*
D23*
X101587500Y-84000000D03*
X103412500Y-84000000D03*
D14*
X121575000Y-110075000D03*
X119675000Y-110075000D03*
D12*
X151202500Y-106400000D03*
X152397500Y-106400000D03*
D21*
X103300000Y-104512500D03*
X103300000Y-102687500D03*
D16*
X173800000Y-63287500D03*
X173800000Y-65112500D03*
D13*
X147250000Y-98800000D03*
X149150000Y-98800000D03*
D19*
X146170000Y-90350000D03*
X146170000Y-91000000D03*
X146170000Y-91650000D03*
X148830000Y-91650000D03*
X148830000Y-91000000D03*
X148830000Y-90350000D03*
D12*
X151302500Y-82700000D03*
X152497500Y-82700000D03*
D16*
X88500000Y-109387500D03*
X88500000Y-111212500D03*
D12*
X151302500Y-83800000D03*
X152497500Y-83800000D03*
D21*
X92400000Y-104512500D03*
X92400000Y-102687500D03*
D51*
X138362500Y-84050000D03*
X138362500Y-85000000D03*
X138362500Y-85950000D03*
X140637500Y-85950000D03*
X140637500Y-84050000D03*
D13*
X147250000Y-104000000D03*
X149150000Y-104000000D03*
D12*
X119902500Y-94000000D03*
X121097500Y-94000000D03*
X151202500Y-97000000D03*
X152397500Y-97000000D03*
D51*
X120750000Y-114000000D03*
X120750000Y-114950000D03*
X120750000Y-115900000D03*
X123025000Y-115900000D03*
X123025000Y-114000000D03*
D12*
X119902500Y-93000000D03*
X121097500Y-93000000D03*
D13*
X115550000Y-103500000D03*
X117450000Y-103500000D03*
D12*
X151202500Y-98200000D03*
X152397500Y-98200000D03*
D37*
X135300000Y-82200000D03*
X136435000Y-82200000D03*
D23*
X101562500Y-93375000D03*
X103387500Y-93375000D03*
D42*
X111050000Y-100837500D03*
X112000000Y-100837500D03*
X112950000Y-100837500D03*
X112950000Y-98562500D03*
X111050000Y-98562500D03*
D20*
X154797500Y-82700000D03*
X153602500Y-82700000D03*
D24*
X92500000Y-71050000D03*
X92500000Y-72950000D03*
M02*
