G04 #@! TF.GenerationSoftware,KiCad,Pcbnew,6.0.6-3a73a75311~116~ubuntu20.04.1*
G04 #@! TF.CreationDate,2022-07-28T18:37:22+02:00*
G04 #@! TF.ProjectId,H7DDCADC,48374444-4341-4444-932e-6b696361645f,initial*
G04 #@! TF.SameCoordinates,Original*
G04 #@! TF.FileFunction,Legend,Bot*
G04 #@! TF.FilePolarity,Positive*
%FSLAX46Y46*%
G04 Gerber Fmt 4.6, Leading zero omitted, Abs format (unit mm)*
G04 Created by KiCad (PCBNEW 6.0.6-3a73a75311~116~ubuntu20.04.1) date 2022-07-28 18:37:22*
%MOMM*%
%LPD*%
G01*
G04 APERTURE LIST*
%ADD10C,1.500000*%
%ADD11R,1.700000X1.700000*%
%ADD12O,1.700000X1.700000*%
%ADD13C,1.700000*%
%ADD14C,2.050000*%
%ADD15C,2.250000*%
G04 APERTURE END LIST*
%LPC*%
D10*
X117500000Y-110500000D03*
X119700000Y-101000000D03*
D11*
X107500000Y-81000000D03*
D12*
X107500000Y-78460000D03*
D10*
X123500000Y-81800000D03*
X131500000Y-91500000D03*
X123500000Y-93400000D03*
X131600000Y-88400000D03*
X135000000Y-89000000D03*
D13*
X193430000Y-57750000D03*
X193430000Y-60290000D03*
X190890000Y-57750000D03*
X190890000Y-60290000D03*
X188350000Y-57750000D03*
X188350000Y-60290000D03*
X185810000Y-57750000D03*
X185810000Y-60290000D03*
X183270000Y-57750000D03*
X183270000Y-60290000D03*
X180730000Y-57750000D03*
X180730000Y-60290000D03*
X178190000Y-57750000D03*
X178190000Y-60290000D03*
X175650000Y-57750000D03*
X175650000Y-60290000D03*
X173110000Y-57750000D03*
X173110000Y-60290000D03*
X170570000Y-57750000D03*
X170570000Y-60290000D03*
X168030000Y-57750000D03*
X168030000Y-60290000D03*
X165490000Y-57750000D03*
X165490000Y-60290000D03*
X162950000Y-57750000D03*
X162950000Y-60290000D03*
X160410000Y-57750000D03*
X160410000Y-60290000D03*
X157870000Y-57750000D03*
X157870000Y-60290000D03*
X155330000Y-57750000D03*
X155330000Y-60290000D03*
X152790000Y-57750000D03*
X152790000Y-60290000D03*
X150250000Y-57750000D03*
X150250000Y-60290000D03*
X147710000Y-57750000D03*
X147710000Y-60290000D03*
X145170000Y-57750000D03*
X145170000Y-60290000D03*
X142630000Y-57750000D03*
X142630000Y-60290000D03*
X140090000Y-57750000D03*
X140090000Y-60290000D03*
X137550000Y-57750000D03*
X137550000Y-60290000D03*
X135010000Y-57750000D03*
X135010000Y-60290000D03*
X132470000Y-57750000D03*
X132470000Y-60290000D03*
X129930000Y-57750000D03*
X129930000Y-60290000D03*
X127390000Y-57750000D03*
X127390000Y-60290000D03*
X124850000Y-57750000D03*
X124850000Y-60290000D03*
X122310000Y-57750000D03*
X122310000Y-60290000D03*
X119770000Y-57750000D03*
X119770000Y-60290000D03*
X117230000Y-57750000D03*
X117230000Y-60290000D03*
X114690000Y-57750000D03*
X114690000Y-60290000D03*
X112150000Y-57750000D03*
X112150000Y-60290000D03*
X109610000Y-57750000D03*
X109610000Y-60290000D03*
X107070000Y-57750000D03*
X107070000Y-60290000D03*
X104530000Y-57750000D03*
X104530000Y-60290000D03*
X193430000Y-118710000D03*
X193430000Y-121250000D03*
X190890000Y-118710000D03*
X190890000Y-121250000D03*
X188350000Y-118710000D03*
X188350000Y-121250000D03*
X185810000Y-118710000D03*
X185810000Y-121250000D03*
X183270000Y-118710000D03*
X183270000Y-121250000D03*
X180730000Y-118710000D03*
X180730000Y-121250000D03*
X178190000Y-118710000D03*
X178190000Y-121250000D03*
X175650000Y-118710000D03*
X175650000Y-121250000D03*
X173110000Y-118710000D03*
X173110000Y-121250000D03*
X170570000Y-118710000D03*
X170570000Y-121250000D03*
X168030000Y-118710000D03*
X168030000Y-121250000D03*
X165490000Y-118710000D03*
X165490000Y-121250000D03*
X162950000Y-118710000D03*
X162950000Y-121250000D03*
X160410000Y-118710000D03*
X160410000Y-121250000D03*
X157870000Y-118710000D03*
X157870000Y-121250000D03*
X155330000Y-118710000D03*
X155330000Y-121250000D03*
X152790000Y-118710000D03*
X152790000Y-121250000D03*
X150250000Y-118710000D03*
X150250000Y-121250000D03*
X147710000Y-118710000D03*
X147710000Y-121250000D03*
X145170000Y-118710000D03*
X145170000Y-121250000D03*
X142630000Y-118710000D03*
X142630000Y-121250000D03*
X140090000Y-118710000D03*
X140090000Y-121250000D03*
X137550000Y-118710000D03*
X137550000Y-121250000D03*
X135010000Y-118710000D03*
X135010000Y-121250000D03*
X132470000Y-118710000D03*
X132470000Y-121250000D03*
X129930000Y-118710000D03*
X129930000Y-121250000D03*
X127390000Y-118710000D03*
X127390000Y-121250000D03*
X124850000Y-118710000D03*
X124850000Y-121250000D03*
X122310000Y-118710000D03*
X122310000Y-121250000D03*
X119770000Y-118710000D03*
X119770000Y-121250000D03*
X117230000Y-118710000D03*
X117230000Y-121250000D03*
X114690000Y-118710000D03*
X114690000Y-121250000D03*
X112150000Y-118710000D03*
X112150000Y-121250000D03*
X109610000Y-118710000D03*
X109610000Y-121250000D03*
X107070000Y-118710000D03*
X107070000Y-121250000D03*
X104530000Y-118710000D03*
X104530000Y-121250000D03*
D10*
X123500000Y-85400000D03*
D11*
X97925000Y-63000000D03*
D12*
X100465000Y-63000000D03*
D11*
X100275000Y-116420000D03*
D12*
X97735000Y-116420000D03*
D10*
X138900000Y-89100000D03*
X123500000Y-88200000D03*
X112500000Y-81000000D03*
X142500000Y-88500000D03*
X143500000Y-95600000D03*
X123500000Y-90800000D03*
X107300000Y-107600000D03*
D14*
X91500000Y-120500000D03*
D15*
X94040000Y-117960000D03*
X88960000Y-117960000D03*
X94040000Y-123040000D03*
X88960000Y-123040000D03*
D11*
X95460000Y-75040000D03*
D12*
X98000000Y-75040000D03*
X100540000Y-75040000D03*
D10*
X126200000Y-81800000D03*
D14*
X91500000Y-58500000D03*
D15*
X94040000Y-61040000D03*
X88960000Y-61040000D03*
X94040000Y-55960000D03*
X88960000Y-55960000D03*
D11*
X100525000Y-104507500D03*
D12*
X97985000Y-104507500D03*
X95445000Y-104507500D03*
D10*
X143600000Y-91700000D03*
X117500000Y-108000000D03*
M02*
